<?xml version="1.0" encoding="UTF-8"?>
<!DOCTYPE svg PUBLIC "-//W3C//DTD SVG 1.1//EN" "http://www.w3.org/Graphics/SVG/1.1/DTD/svg11.dtd">
<svg xmlns="http://www.w3.org/2000/svg" version="1.1" width="3000px" height="3000px" style="shape-rendering:geometricPrecision; text-rendering:geometricPrecision; image-rendering:optimizeQuality; fill-rule:evenodd; clip-rule:evenodd" xmlns:xlink="http://www.w3.org/1999/xlink">
<g><path style="opacity:1" fill="#000000" d="M -0.5,-0.5 C 999.5,-0.5 1999.5,-0.5 2999.5,-0.5C 2999.5,999.5 2999.5,1999.5 2999.5,2999.5C 1999.5,2999.5 999.5,2999.5 -0.5,2999.5C -0.5,1999.5 -0.5,999.5 -0.5,-0.5 Z"/></g>
<g><path style="opacity:1" fill="#fefefe" d="M 1281.5,612.5 C 1440.17,612.333 1598.83,612.5 1757.5,613C 1789.67,620.172 1808.51,640.005 1814,672.5C 1839.73,694.959 1854.73,723.292 1859,757.5C 1859.5,773.497 1859.67,789.497 1859.5,805.5C 2019.19,805.013 2178.85,805.513 2338.5,807C 2391.92,816.462 2430.42,845.629 2454,894.5C 2461.8,913.02 2466.46,932.353 2468,952.5C 2469.74,1051.16 2470.74,1149.83 2471,1248.5C 2467.22,1282.42 2455.55,1313.08 2436,1340.5C 2435.67,1580.17 2435.33,1819.83 2435,2059.5C 2429.46,2118.45 2400.63,2161.62 2348.5,2189C 2331.89,2196.49 2314.55,2201.49 2296.5,2204C 2033.5,2204.17 1770.5,2204.33 1507.5,2204.5C 1241.81,2204.66 976.145,2204.16 710.5,2203C 659.921,2193.32 622.088,2166.15 597,2121.5C 587.278,2101.95 581.611,2081.28 580,2059.5C 579.667,1821.17 579.333,1582.83 579,1344.5C 557.958,1316.02 545.291,1284.02 541,1248.5C 541.246,1150.16 542.246,1051.83 544,953.5C 549.074,891.451 579.241,846.284 634.5,818C 646.061,812.924 658.061,809.258 670.5,807C 840.141,805.509 1009.81,805.009 1179.5,805.5C 1179.11,787.133 1179.61,768.799 1181,750.5C 1186.37,719.069 1201.04,693.069 1225,672.5C 1230.69,639.978 1249.53,619.978 1281.5,612.5 Z"/></g>
<g><path style="opacity:1" fill="#000000" d="M 1788.5,766.5 C 1788.5,779.167 1788.5,791.833 1788.5,804.5C 1609.17,804.5 1429.83,804.5 1250.5,804.5C 1250.5,791.833 1250.5,779.167 1250.5,766.5C 1251.51,755.472 1256.01,746.139 1264,738.5C 1269.49,741.331 1275.33,743.164 1281.5,744C 1440.17,744.667 1598.83,744.667 1757.5,744C 1763.33,742.627 1768.99,740.794 1774.5,738.5C 1782.88,745.924 1787.55,755.257 1788.5,766.5 Z"/></g>
<g><path style="opacity:1" fill="#373737" d="M 1250.5,766.5 C 1250.5,779.167 1250.5,791.833 1250.5,804.5C 1429.83,804.5 1609.17,804.5 1788.5,804.5C 1788.5,791.833 1788.5,779.167 1788.5,766.5C 1789.5,779.323 1789.83,792.323 1789.5,805.5C 1609.5,805.5 1429.5,805.5 1249.5,805.5C 1249.17,792.323 1249.5,779.323 1250.5,766.5 Z"/></g>
<g><path style="opacity:1" fill="#000000" d="M 2399.5,950.5 C 2399.82,1049.18 2399.49,1147.85 2398.5,1246.5C 2394.8,1266.9 2386.97,1285.56 2375,1302.5C 2362.67,1316.83 2350.33,1331.17 2338,1345.5C 2335.96,1348.24 2334.46,1351.24 2333.5,1354.5C 2331.98,1357.53 2331.31,1360.86 2331.5,1364.5C 2331.5,1367.03 2331.84,1369.36 2332.5,1371.5C 2332.55,1374.57 2333.05,1377.57 2334,1380.5C 2337.75,1386.26 2342.25,1391.42 2347.5,1396C 2350.56,1398.03 2353.89,1399.2 2357.5,1399.5C 2359.21,1400.74 2361.21,1401.41 2363.5,1401.5C 2363.22,1403.41 2363.55,1405.08 2364.5,1406.5C 2365.67,1622.33 2365.83,1838.33 2365,2054.5C 2358.76,2100.08 2332.92,2126.58 2287.5,2134C 1766.83,2134.67 1246.17,2134.67 725.5,2134C 681.059,2125.73 656.059,2099.23 650.5,2054.5C 650.5,1839.5 650.5,1624.5 650.5,1409.5C 651.791,1409.74 652.791,1409.4 653.5,1408.5C 653.833,1408.5 654.167,1408.5 654.5,1408.5C 658.416,1408.97 661.749,1407.97 664.5,1405.5C 675.247,1399.99 681.58,1391.32 683.5,1379.5C 684.163,1377.36 684.497,1375.03 684.5,1372.5C 684.685,1368.86 684.019,1365.53 682.5,1362.5C 681.538,1359.24 680.038,1356.24 678,1353.5C 664.783,1337.71 651.117,1322.38 637,1307.5C 616.363,1280.75 606.863,1250.42 608.5,1216.5C 609.738,1125.47 611.571,1034.47 614,943.5C 622.736,908.431 644.569,886.264 679.5,877C 1228.47,875.335 1777.47,875.002 2326.5,876C 2367.5,884.497 2391.83,909.33 2399.5,950.5 Z"/></g>
<g><path style="opacity:1" fill="#dadada" d="M 2399.5,950.5 C 2400.67,1047.67 2400.83,1145 2400,1242.5C 2399.79,1244.06 2399.29,1245.39 2398.5,1246.5C 2399.49,1147.85 2399.82,1049.18 2399.5,950.5 Z"/></g>
<g><path style="opacity:1" fill="#fefefe" d="M 2285.5,1100.5 C 2286.5,1100.5 2287.5,1100.5 2288.5,1100.5C 2288.17,1110.68 2288.51,1120.68 2289.5,1130.5C 2289.5,1139.5 2289.5,1148.5 2289.5,1157.5C 2289.21,1200.51 2289.54,1243.51 2290.5,1286.5C 2269.43,1271.88 2248.6,1256.88 2228,1241.5C 2092.5,1399 1957,1556.5 1821.5,1714C 1794.5,1714.5 1767.5,1714.67 1740.5,1714.5C 1740.5,1579.83 1740.5,1445.17 1740.5,1310.5C 1768.17,1310.5 1795.83,1310.5 1823.5,1310.5C 1822.95,1375.5 1822.62,1440.5 1822.5,1505.5C 1821.34,1533.33 1821.17,1561.33 1822,1589.5C 1822.72,1588.96 1823.22,1588.29 1823.5,1587.5C 1934.68,1456.15 2045.68,1324.65 2156.5,1193C 2155.07,1190.81 2153.4,1188.81 2151.5,1187C 2132.41,1173.74 2113.74,1159.91 2095.5,1145.5C 2096.71,1143.93 2098.38,1143.1 2100.5,1143C 2112.71,1139.85 2125.05,1137.35 2137.5,1135.5C 2140.52,1135.2 2143.52,1134.7 2146.5,1134C 2147.06,1133.62 2147.39,1133.12 2147.5,1132.5C 2151.14,1131.73 2154.81,1131.06 2158.5,1130.5C 2161.07,1130.28 2163.4,1129.61 2165.5,1128.5C 2171.63,1126.62 2177.97,1125.29 2184.5,1124.5C 2191.42,1123.32 2198.09,1121.66 2204.5,1119.5C 2209.75,1117.18 2215.41,1115.84 2221.5,1115.5C 2225.92,1115.73 2229.92,1114.73 2233.5,1112.5C 2242.6,1111.9 2251.26,1109.9 2259.5,1106.5C 2263.8,1106.25 2267.8,1105.25 2271.5,1103.5C 2276.05,1101.99 2280.71,1100.99 2285.5,1100.5 Z"/></g>
<g><path style="opacity:1" fill="#555555" d="M 2271.5,1103.5 C 2267.8,1105.25 2263.8,1106.25 2259.5,1106.5C 2263.16,1104.66 2267.16,1103.66 2271.5,1103.5 Z"/></g>
<g><path style="opacity:1" fill="#b4b4b4" d="M 2259.5,1106.5 C 2251.26,1109.9 2242.6,1111.9 2233.5,1112.5C 2242.02,1110.34 2250.69,1108.34 2259.5,1106.5 Z"/></g>
<g><path style="opacity:1" fill="#afafaf" d="M 2233.5,1112.5 C 2229.92,1114.73 2225.92,1115.73 2221.5,1115.5C 2225.23,1113.87 2229.23,1112.87 2233.5,1112.5 Z"/></g>
<g><path style="opacity:1" fill="#747474" d="M 2285.5,1100.5 C 2286.57,1099.57 2287.9,1099.23 2289.5,1099.5C 2289.5,1109.83 2289.5,1120.17 2289.5,1130.5C 2288.51,1120.68 2288.17,1110.68 2288.5,1100.5C 2287.5,1100.5 2286.5,1100.5 2285.5,1100.5 Z"/></g>
<g><path style="opacity:1" fill="#aaaaaa" d="M 2204.5,1119.5 C 2198.09,1121.66 2191.42,1123.32 2184.5,1124.5C 2190.8,1121.83 2197.47,1120.17 2204.5,1119.5 Z"/></g>
<g><path style="opacity:1" fill="#979797" d="M 2165.5,1128.5 C 2163.4,1129.61 2161.07,1130.28 2158.5,1130.5C 2160.44,1128.84 2162.77,1128.17 2165.5,1128.5 Z"/></g>
<g><path style="opacity:1" fill="#b2b2b2" d="M 2147.5,1132.5 C 2147.39,1133.12 2147.06,1133.62 2146.5,1134C 2143.52,1134.7 2140.52,1135.2 2137.5,1135.5C 2137.61,1134.88 2137.94,1134.38 2138.5,1134C 2141.48,1133.3 2144.48,1132.8 2147.5,1132.5 Z"/></g>
<g><path style="opacity:1" fill="#666666" d="M 2289.5,1157.5 C 2290.32,1193.5 2290.99,1229.67 2291.5,1266C 2291.5,1273.01 2291.17,1279.84 2290.5,1286.5C 2289.54,1243.51 2289.21,1200.51 2289.5,1157.5 Z"/></g>
<g><path style="opacity:1" fill="#fefefe" d="M 1178.5,1586.5 C 1178.6,1588.97 1179.6,1589.64 1181.5,1588.5C 1180.7,1581.55 1180.2,1574.55 1180,1567.5C 1179.5,1482.17 1179.33,1396.83 1179.5,1311.5C 1207.83,1311.5 1236.17,1311.5 1264.5,1311.5C 1263.57,1444 1263.57,1576.33 1264.5,1708.5C 1264.5,1710.83 1264.5,1713.17 1264.5,1715.5C 1236.5,1715.67 1208.5,1715.5 1180.5,1715C 1115.91,1635.58 1051.91,1555.75 988.5,1475.5C 988.44,1474.96 988.107,1474.62 987.5,1474.5C 986.168,1562.67 986.168,1650.67 987.5,1738.5C 987.333,1763.17 987.5,1787.84 988,1812.5C 991.394,1813.46 994.894,1813.79 998.5,1813.5C 1016.83,1814.17 1035.17,1814.83 1053.5,1815.5C 1043.79,1827.88 1034.45,1840.55 1025.5,1853.5C 1023.41,1854.58 1022.08,1856.25 1021.5,1858.5C 1009.46,1873.88 997.789,1889.55 986.5,1905.5C 984.413,1906.58 983.08,1908.25 982.5,1910.5C 976.455,1917.88 970.788,1925.55 965.5,1933.5C 962.529,1935.44 960.529,1938.11 959.5,1941.5C 953.886,1948.95 948.053,1956.29 942,1963.5C 940.395,1962.9 939.062,1961.9 938,1960.5C 932.668,1953.01 927.168,1945.67 921.5,1938.5C 920.92,1936.25 919.587,1934.58 917.5,1933.5C 887.84,1894.49 858.507,1855.16 829.5,1815.5C 847.833,1814.83 866.167,1814.17 884.5,1813.5C 890.093,1813.81 895.593,1813.47 901,1812.5C 901.5,1645.17 901.667,1477.83 901.5,1310.5C 921.178,1310.17 940.845,1310.5 960.5,1311.5C 1032.97,1403.5 1105.63,1495.16 1178.5,1586.5 Z"/></g>
<g><path style="opacity:1" fill="#fefefe" d="M 1521.5,1311.5 C 1527.98,1312.6 1534.65,1313.26 1541.5,1313.5C 1548.96,1314.24 1556.3,1315.57 1563.5,1317.5C 1563.61,1318.12 1563.94,1318.62 1564.5,1319C 1567.48,1319.7 1570.48,1320.2 1573.5,1320.5C 1597.75,1327.55 1617.58,1341.22 1633,1361.5C 1636.96,1367.1 1640.13,1373.1 1642.5,1379.5C 1643.08,1382.95 1644.42,1385.95 1646.5,1388.5C 1653.07,1409.83 1655.4,1431.83 1653.5,1454.5C 1652.18,1459.66 1651.18,1464.99 1650.5,1470.5C 1645.35,1495.77 1633.35,1517.27 1614.5,1535C 1594.32,1552.65 1571.32,1564.48 1545.5,1570.5C 1543.47,1570.34 1541.47,1570.5 1539.5,1571C 1538.94,1571.38 1538.61,1571.88 1538.5,1572.5C 1532.5,1573.17 1526.5,1573.83 1520.5,1574.5C 1514.29,1574.52 1508.29,1575.19 1502.5,1576.5C 1484.83,1576.5 1467.17,1576.5 1449.5,1576.5C 1449.5,1622.83 1449.5,1669.17 1449.5,1715.5C 1419.17,1715.5 1388.83,1715.5 1358.5,1715.5C 1358.5,1580.5 1358.5,1445.5 1358.5,1310.5C 1412.9,1310.17 1467.24,1310.5 1521.5,1311.5 Z"/></g>
<g><path style="opacity:1" fill="#878787" d="M 1521.5,1311.5 C 1528.42,1311.07 1535.09,1311.73 1541.5,1313.5C 1534.65,1313.26 1527.98,1312.6 1521.5,1311.5 Z"/></g>
<g><path style="opacity:1" fill="#a0a0a0" d="M 1264.5,1708.5 C 1263.57,1576.33 1263.57,1444 1264.5,1311.5C 1236.17,1311.5 1207.83,1311.5 1179.5,1311.5C 1179.33,1396.83 1179.5,1482.17 1180,1567.5C 1180.2,1574.55 1180.7,1581.55 1181.5,1588.5C 1179.6,1589.64 1178.6,1588.97 1178.5,1586.5C 1178.54,1494.68 1178.54,1402.68 1178.5,1310.5C 1207.5,1310.5 1236.5,1310.5 1265.5,1310.5C 1264.92,1443.17 1264.59,1575.83 1264.5,1708.5 Z"/></g>
<g><path style="opacity:1" fill="#979797" d="M 1563.5,1317.5 C 1567.08,1318.01 1570.42,1319.01 1573.5,1320.5C 1570.48,1320.2 1567.48,1319.7 1564.5,1319C 1563.94,1318.62 1563.61,1318.12 1563.5,1317.5 Z"/></g>
<g><path style="opacity:1" fill="#909090" d="M 2333.5,1354.5 C 2332.71,1360.13 2332.37,1365.8 2332.5,1371.5C 2331.84,1369.36 2331.5,1367.03 2331.5,1364.5C 2331.31,1360.86 2331.98,1357.53 2333.5,1354.5 Z"/></g>
<g><path style="opacity:1" fill="#909090" d="M 682.5,1362.5 C 684.019,1365.53 684.685,1368.86 684.5,1372.5C 684.497,1375.03 684.163,1377.36 683.5,1379.5C 683.625,1373.8 683.292,1368.13 682.5,1362.5 Z"/></g>
<g><path style="opacity:1" fill="#020202" d="M 1555.5,1463.5 C 1554.08,1465.51 1553.41,1467.85 1553.5,1470.5C 1545.11,1488.9 1530.78,1499.9 1510.5,1503.5C 1504.94,1503.96 1499.61,1504.96 1494.5,1506.5C 1479.5,1506.5 1464.5,1506.5 1449.5,1506.5C 1449.5,1464.5 1449.5,1422.5 1449.5,1380.5C 1467.86,1380.15 1486.2,1380.65 1504.5,1382C 1539.58,1386.74 1557.24,1406.74 1557.5,1442C 1557.59,1449.26 1556.92,1456.43 1555.5,1463.5 Z"/></g>
<g><path style="opacity:1" fill="#797979" d="M 1642.5,1379.5 C 1644.58,1382.05 1645.92,1385.05 1646.5,1388.5C 1644.42,1385.95 1643.08,1382.95 1642.5,1379.5 Z"/></g>
<g><path style="opacity:1" fill="#545454" d="M 2357.5,1399.5 C 2359.86,1399.67 2362.19,1400.01 2364.5,1400.5C 2364.5,1402.5 2364.5,1404.5 2364.5,1406.5C 2363.55,1405.08 2363.22,1403.41 2363.5,1401.5C 2361.21,1401.41 2359.21,1400.74 2357.5,1399.5 Z"/></g>
<g><path style="opacity:1" fill="#535353" d="M 664.5,1405.5 C 661.749,1407.97 658.416,1408.97 654.5,1408.5C 657.726,1407.51 661.06,1406.51 664.5,1405.5 Z"/></g>
<g><path style="opacity:1" fill="#5a5a5a" d="M 653.5,1408.5 C 652.791,1409.4 651.791,1409.74 650.5,1409.5C 650.5,1624.5 650.5,1839.5 650.5,2054.5C 649.5,1839.33 649.167,1624 649.5,1408.5C 650.833,1408.5 652.167,1408.5 653.5,1408.5 Z"/></g>
<g><path style="opacity:1" fill="#4a4a4a" d="M 1653.5,1454.5 C 1653.41,1459.54 1652.91,1464.54 1652,1469.5C 1651.62,1470.06 1651.12,1470.39 1650.5,1470.5C 1651.18,1464.99 1652.18,1459.66 1653.5,1454.5 Z"/></g>
<g><path style="opacity:1" fill="#888888" d="M 1555.5,1463.5 C 1555.59,1466.15 1554.92,1468.49 1553.5,1470.5C 1553.41,1467.85 1554.08,1465.51 1555.5,1463.5 Z"/></g>
<g><path style="opacity:1" fill="#a6a6a6" d="M 988.5,1475.5 C 987.501,1563 987.167,1650.67 987.5,1738.5C 986.168,1650.67 986.168,1562.67 987.5,1474.5C 988.107,1474.62 988.44,1474.96 988.5,1475.5 Z"/></g>
<g><path style="opacity:1" fill="#aaaaaa" d="M 1510.5,1503.5 C 1505.53,1505.76 1500.19,1506.76 1494.5,1506.5C 1499.61,1504.96 1504.94,1503.96 1510.5,1503.5 Z"/></g>
<g><path style="opacity:1" fill="#8c8c8c" d="M 1822.5,1505.5 C 1822.17,1533.01 1822.5,1560.34 1823.5,1587.5C 1823.22,1588.29 1822.72,1588.96 1822,1589.5C 1821.17,1561.33 1821.34,1533.33 1822.5,1505.5 Z"/></g>
<g><path style="opacity:1" fill="#919191" d="M 1545.5,1570.5 C 1543.4,1571.61 1541.07,1572.28 1538.5,1572.5C 1538.61,1571.88 1538.94,1571.38 1539.5,1571C 1541.47,1570.5 1543.47,1570.34 1545.5,1570.5 Z"/></g>
<g><path style="opacity:1" fill="#838383" d="M 1520.5,1574.5 C 1514.73,1575.95 1508.73,1576.61 1502.5,1576.5C 1508.29,1575.19 1514.29,1574.52 1520.5,1574.5 Z"/></g>
<g><path style="opacity:1" fill="#b3b3b3" d="M 884.5,1813.5 C 866.167,1814.17 847.833,1814.83 829.5,1815.5C 828.957,1815.44 828.624,1815.11 828.5,1814.5C 847.155,1813.5 865.821,1813.17 884.5,1813.5 Z"/></g>
<g><path style="opacity:1" fill="#b1b1b1" d="M 998.5,1813.5 C 1017.18,1813.17 1035.85,1813.5 1054.5,1814.5C 1054.38,1815.11 1054.04,1815.44 1053.5,1815.5C 1035.17,1814.83 1016.83,1814.17 998.5,1813.5 Z"/></g>
<g><path style="opacity:1" fill="#525252" d="M 1025.5,1853.5 C 1024.92,1855.75 1023.59,1857.42 1021.5,1858.5C 1022.08,1856.25 1023.41,1854.58 1025.5,1853.5 Z"/></g>
<g><path style="opacity:1" fill="#585858" d="M 986.5,1905.5 C 985.92,1907.75 984.587,1909.42 982.5,1910.5C 983.08,1908.25 984.413,1906.58 986.5,1905.5 Z"/></g>
<g><path style="opacity:1" fill="#535353" d="M 917.5,1933.5 C 919.587,1934.58 920.92,1936.25 921.5,1938.5C 919.413,1937.42 918.08,1935.75 917.5,1933.5 Z"/></g>
<g><path style="opacity:1" fill="#515151" d="M 965.5,1933.5 C 963.984,1936.53 961.984,1939.2 959.5,1941.5C 960.529,1938.11 962.529,1935.44 965.5,1933.5 Z"/></g>
</svg>
